<svg width="55" height="55" viewBox="0 0 55 55" fill="none" xmlns="http://www.w3.org/2000/svg">
<path d="M20.625 43.5417C9.16666 46.9792 9.16666 37.8125 4.58333 36.6667M36.6667 50.4167V41.5479C36.7526 40.4552 36.605 39.3566 36.2336 38.3253C35.8622 37.2941 35.2755 36.3537 34.5125 35.5667C41.7083 34.7646 49.2708 32.0375 49.2708 19.525C49.2702 16.3254 48.0395 13.2486 45.8333 10.9312C46.878 8.13198 46.8041 5.03787 45.6271 2.29166C45.6271 2.29166 42.9229 1.48957 36.6667 5.68332C31.4142 4.25979 25.8775 4.25979 20.625 5.68332C14.3687 1.48957 11.6646 2.29166 11.6646 2.29166C10.4875 5.03787 10.4137 8.13198 11.4583 10.9312C9.2357 13.2658 8.00369 16.3704 8.02083 19.5937C8.02083 32.0146 15.5833 34.7417 22.7792 35.6354C22.0252 36.4145 21.4437 37.3436 21.0726 38.3623C20.7014 39.381 20.5489 40.4664 20.625 41.5479V50.4167" stroke="black" stroke-width="2" stroke-linecap="round" stroke-linejoin="round"/>
</svg>
