<svg width="55" height="55" viewBox="0 0 55 55" fill="none" xmlns="http://www.w3.org/2000/svg">
<path d="M52.7083 6.875C50.5138 8.42297 48.084 9.60692 45.5125 10.3813C44.1323 8.7943 42.2981 7.66951 40.2578 7.159C38.2175 6.6485 36.0697 6.77691 34.1048 7.52688C32.1399 8.27684 30.4527 9.61217 29.2714 11.3523C28.0902 13.0924 27.4718 15.1533 27.5 17.2563V19.5479C23.4727 19.6523 19.4821 18.7592 15.8836 16.9479C12.285 15.1366 9.19031 12.4635 6.875 9.16667C6.875 9.16667 -2.29167 29.7917 18.3333 38.9583C13.6137 42.162 7.9914 43.7684 2.29166 43.5417C22.9167 55 48.125 43.5417 48.125 17.1875C48.1229 16.5492 48.0615 15.9124 47.9417 15.2854C50.2805 12.9788 51.9311 10.0666 52.7083 6.875Z" stroke="black" stroke-width="2" stroke-linecap="round" stroke-linejoin="round"/>
</svg>
