<svg width="55" height="55" viewBox="0 0 55 55" fill="none" xmlns="http://www.w3.org/2000/svg">
<path d="M36.6667 18.3333C40.3134 18.3333 43.8108 19.782 46.3894 22.3606C48.968 24.9393 50.4167 28.4366 50.4167 32.0833V48.125H41.25V32.0833C41.25 30.8678 40.7671 29.702 39.9076 28.8424C39.048 27.9829 37.8822 27.5 36.6667 27.5C35.4511 27.5 34.2853 27.9829 33.4258 28.8424C32.5662 29.702 32.0833 30.8678 32.0833 32.0833V48.125H22.9167V32.0833C22.9167 28.4366 24.3653 24.9393 26.9439 22.3606C29.5226 19.782 33.0199 18.3333 36.6667 18.3333Z" stroke="black" stroke-width="2" stroke-linecap="round" stroke-linejoin="round"/>
<path d="M13.75 20.625H4.58334V48.125H13.75V20.625Z" stroke="black" stroke-width="2" stroke-linecap="round" stroke-linejoin="round"/>
<path d="M9.16668 13.75C11.698 13.75 13.75 11.698 13.75 9.16668C13.75 6.63537 11.698 4.58334 9.16668 4.58334C6.63537 4.58334 4.58334 6.63537 4.58334 9.16668C4.58334 11.698 6.63537 13.75 9.16668 13.75Z" stroke="black" stroke-width="2" stroke-linecap="round" stroke-linejoin="round"/>
</svg>
