<svg width="48" height="48" viewBox="0 0 48 48" fill="none" xmlns="http://www.w3.org/2000/svg">
<path d="M33.8788 6C36.5608 6 39.1408 7.06 41.0388 8.962C42.9388 10.86 44.0008 13.42 44.0008 16.1V31.9C44.0008 37.48 39.4608 42 33.8788 42H14.1208C8.5388 42 4.0008 37.48 4.0008 31.9V16.1C4.0008 10.52 8.5188 6 14.1208 6H33.8788ZM36.1408 16.4C35.7208 16.378 35.3208 16.52 35.0188 16.8L26.0008 24C24.8408 24.962 23.1788 24.962 22.0008 24L13.0008 16.8C12.3788 16.34 11.5188 16.4 11.0008 16.94C10.4608 17.48 10.4008 18.34 10.8588 18.94L11.1208 19.2L20.2208 26.3C21.3408 27.18 22.6988 27.66 24.1208 27.66C25.5388 27.66 26.9208 27.18 28.0388 26.3L37.0608 19.08L37.2208 18.92C37.6988 18.34 37.6988 17.5 37.1988 16.92C36.9208 16.622 36.5388 16.44 36.1408 16.4Z" fill="#4A4949"/>
</svg>
